<?xml version="1.0" encoding="UTF-8"?>
<!DOCTYPE svg PUBLIC "-//W3C//DTD SVG 1.1//EN" "http://www.w3.org/Graphics/SVG/1.1/DTD/svg11.dtd">
<!-- Creator: CorelDRAW 2021 (64-Bit) -->
<svg xmlns="http://www.w3.org/2000/svg" xml:space="preserve" width="37.9827mm" height="51.1512mm" version="1.1" style="shape-rendering:geometricPrecision; text-rendering:geometricPrecision; image-rendering:optimizeQuality; fill-rule:evenodd; clip-rule:evenodd"
viewBox="0 0 12788.86 17222.72"
 xmlns:xlink="http://www.w3.org/1999/xlink"
 xmlns:xodm="http://www.corel.com/coreldraw/odm/2003">
 <defs>
  <style type="text/css">
   <![CDATA[
    .fil0 {fill:black;fill-rule:nonzero}
    .fil1 {fill:#CB3637;fill-rule:nonzero}
   ]]>
  </style>
 </defs>
 <g id="Слой_x0020_1">
  <metadata id="CorelCorpID_0Corel-Layer"/>
  <g id="_1628143633696">
   <g>
    <path class="fil0" d="M8473.68 16201.64c283.17,0 512.76,228.59 512.76,510.54 0,281.95 -229.6,510.54 -512.76,510.54l0 -1021.08zm-7960.92 0l7960.92 0 0 1021.08 -7960.92 0 -512.76 -510.54 512.76 -510.54zm0 1021.08c-283.17,0 -512.76,-228.59 -512.76,-510.54 0,-281.95 229.6,-510.54 512.76,-510.54l0 1021.08zm512.76 -16712.18l0 16201.64 -1025.53 0 0 -16201.64 512.76 -510.54 512.76 510.54zm-1025.53 0c0,-281.95 229.6,-510.54 512.76,-510.54 283.17,0 512.76,228.59 512.76,510.54l-1025.53 0zm8473.68 510.54l-7960.92 0 0 -1021.08 7960.92 0 0 1021.08zm0 -1021.08c283.17,0 512.76,228.59 512.76,510.54 0,281.95 -229.6,510.54 -512.76,510.54l0 -1021.08z"/>
   </g>
   <g>
    <path class="fil1" d="M3672.38 9121.94c-281.95,0 -510.58,-228.62 -510.58,-510.58 0,-281.95 228.62,-510.58 510.58,-510.58l0 1021.15zm8605.91 0l-8605.91 0 0 -1021.15 8605.91 0 0 1021.15zm0 -1021.15c281.95,0 510.58,228.62 510.58,510.58 0,281.95 -228.62,510.58 -510.58,510.58l0 -1021.15z"/>
   </g>
   <g>
    <path class="fil1" d="M9243.01 5401.65c-168.42,-225.35 -121.62,-544.18 104.51,-712.02 226.13,-167.85 546,-121.21 714.41,104.14l-818.93 607.88zm1312.87 1756.78l-1312.87 -1756.78 818.93 -607.88 1312.87 1756.78 0 0 -818.93 607.88zm818.93 -607.88c168.42,225.35 121.62,544.18 -104.51,712.02 -226.13,167.85 -546,121.21 -714.41,-104.14l818.93 -607.88zm493.98 2364.76l-1312.9 -1756.88 818.93 -607.88 1312.9 1756.88 0 607.85 -818.93 0.03zm818.93 -607.88c168.42,225.35 121.62,544.18 -104.51,712.02 -226.13,167.85 -546,121.21 -714.41,-104.14l818.93 -607.88zm-2131.8 1756.91l1312.87 -1756.88 818.93 607.81 -1312.87 1756.88 0 0.03 -818.93 -607.85zm818.93 607.81c-168.42,225.35 -488.29,271.99 -714.41,104.18 -226.13,-167.81 -272.93,-486.64 -104.51,-711.99l818.93 607.81zm-2131.83 1148.93l1312.9 -1756.78 818.93 607.88 -1312.9 1756.78 -818.93 -607.88zm818.93 607.88c-168.42,225.35 -488.32,271.99 -714.45,104.14 -226.13,-167.85 -272.9,-486.67 -104.48,-712.02l818.93 607.88z"/>
   </g>
  </g>
 </g>
</svg>
